<svg width="24" height="42" viewBox="0 0 24 42" fill="none" xmlns="http://www.w3.org/2000/svg">
<path d="M12.1598 26.2541C6.37205 26.2541 1.94677 19.1846 1.94677 10.2309C1.94677 1.2785 5.63403 0 12.1598 0C18.6856 0 22.0535 1.2785 22.0535 10.2309C22.0535 19.1846 17.4225 26.2541 12.1598 26.2541ZM23.7652 34.4257C24.2406 35.2178 23.971 36.2403 23.1648 36.7068C22.8938 36.8632 22.5971 36.9372 22.3048 36.9372C21.7243 36.9372 21.158 36.6442 20.8415 36.1166C20.2951 35.2093 19.7359 34.5636 19.1057 33.9735C18.4756 33.3861 17.7603 32.8599 16.9413 32.247C16.5411 31.9498 16.1423 31.6923 15.7449 31.4733C15.7917 31.5587 15.8386 31.6454 15.8868 31.735C17.0364 33.9023 18.2229 36.9102 18.2286 40.3361C18.2286 41.2548 17.4693 42 16.5326 42C15.5945 42 14.8351 41.2548 14.8351 40.3361C14.8408 37.7307 13.9098 35.2249 12.9277 33.3676C12.6097 32.7618 12.289 32.2271 11.9994 31.7805C11.7255 32.2057 11.4218 32.7106 11.1181 33.2794C10.1203 35.1453 9.15807 37.6909 9.16375 40.3361C9.16375 41.2548 8.40444 42 7.46772 42C6.53101 42 5.7717 41.2548 5.7717 40.3361C5.77738 36.9102 6.96246 33.9023 8.11349 31.735C8.16033 31.6454 8.20716 31.5587 8.25542 31.4733C7.8566 31.6923 7.45921 31.9498 7.05898 32.247C6.23864 32.8599 5.52333 33.3861 4.89459 33.9735C4.26444 34.5636 3.70382 35.2093 3.15741 36.118C2.68195 36.9102 1.64163 37.1733 0.835482 36.7068C0.0279185 36.2403 -0.240323 35.2178 0.235132 34.4257C0.944766 33.2411 1.7424 32.3167 2.55989 31.5572C3.37881 30.7964 4.20341 30.1963 5.00387 29.5961C5.38282 29.3117 5.7717 29.05 6.16909 28.8125C5.7717 28.575 5.38282 28.3119 5.00387 28.0275C3.17302 26.658 1.58202 24.8106 0.235132 22.5679C-0.240323 21.7744 0.0279185 20.7533 0.835482 20.2868C1.64163 19.8203 2.68195 20.0834 3.15741 20.8756C4.32404 22.8196 5.64822 24.3242 7.05756 25.3766C8.56908 26.4987 10.0536 27.0548 11.5808 27.1429C11.7199 27.1387 11.8604 27.1344 11.9994 27.1344C12.14 27.1344 12.279 27.1387 12.4181 27.1429C13.9453 27.0548 15.4312 26.4987 16.9413 25.3766C18.3507 24.3242 19.6763 22.8196 20.8415 20.8756C21.3184 20.0834 22.3573 19.8203 23.1648 20.2868C23.971 20.7533 24.2406 21.7744 23.7652 22.5665C22.4183 24.8106 20.8259 26.658 18.995 28.0275C18.6161 28.3119 18.2272 28.575 17.8312 28.8125C18.2272 29.05 18.6161 29.3117 18.995 29.5961C19.7969 30.1963 20.6201 30.7964 21.4404 31.5572C22.2579 32.3167 23.0541 33.2411 23.7652 34.4257ZM9.76836 20.4475C8.83164 20.4475 8.07233 21.1941 8.07233 22.1128C8.07233 23.0344 8.83164 23.7796 9.76836 23.7796C10.7051 23.7796 11.4644 23.0344 11.4644 22.1128C11.4644 21.1941 10.7051 20.4475 9.76836 20.4475ZM14.2305 20.4475C13.2938 20.4475 12.5345 21.1941 12.5345 22.1128C12.5345 23.0344 13.2938 23.7796 14.2305 23.7796C15.1673 23.7796 15.9266 23.0344 15.9266 22.1128C15.9266 21.1941 15.1673 20.4475 14.2305 20.4475Z" fill="#1F8FFF"/>
</svg>
